<svg xmlns="http://www.w3.org/2000/svg" xmlns:xlink="http://www.w3.org/1999/xlink" width="1207.917" height="730" viewBox="0 0 1207.917 730">
  <defs>
    <linearGradient id="linear-gradient" x1="0.944" y1="0.746" x2="0.132" y2="0.199" gradientUnits="objectBoundingBox">
      <stop offset="0" stop-color="aqua"/>
      <stop offset="0.7" stop-color="#7633e8"/>
      <stop offset="1" stop-color="#e10191"/>
    </linearGradient>
    <clipPath id="clip-path">
      <path id="Path_308368" data-name="Path 308368" d="M94.661,658.266C58.37,638.063,31.67,598.145,15.3,539.631c-48.707-174.09,46.23-240.058,134.45-264.741,115.2-32.232,289.092-10.617,443.015,55.071q6.3,2.686,12.646,5.371C516.446,467.5,349.512,627.851,214.32,665.68q-29.641,8.292-55.627,8.289c-23.822,0-45.243-5.237-64.032-15.7M608.824,334.313l.023-.039C709.423,183.652,815.272,89.294,914.952,61.4c55.862-15.63,108.35-9.453,151.782,17.861,52.18,32.815,88.517,93.851,102.329,171.869,9.9,55.926,7,100.687-8.6,133.033-14.241,29.5-39.495,49.5-75.063,59.454-18.881,5.283-40.169,7.654-63.259,7.652-120.147-.008-288.5-64.275-413.315-116.96M914.342,59.223C814.13,87.26,707.841,181.937,606.964,333.017l-.268.4q-6.549-2.763-13.044-5.538C439.284,262,264.8,240.346,149.135,272.708c-59.542,16.66-101.985,46.284-126.153,88.043C7.722,387.116.056,417.971,0,453.018v.82q.068,39.7,13.116,86.4c16.541,59.122,43.605,99.495,80.444,120.005,19.077,10.623,40.781,15.96,64.9,15.992h.391q26.186-.025,56.079-8.373c80.733-22.59,162.749-85.2,217.336-133.744,66.764-59.369,130.6-131.453,175.272-197.891C756.679,399.2,968.09,478.8,1086.009,445.8c75.749-21.195,104.445-86.823,85.286-195.064-13.922-78.658-50.629-140.232-103.351-173.391C1039.786,59.641,1007.9,50.7,973.779,50.7a220.573,220.573,0,0,0-59.437,8.522" transform="translate(0 -50.701)" fill="url(#linear-gradient)"/>
    </clipPath>
    <clipPath id="clip-path-2">
      <path id="Path_308369" data-name="Path 308369" d="M100.37,658.672c-36.161-20.381-62.826-60.638-79.254-119.653C-29.379,356.813,61.5,290.173,146.635,266.351c111.607-31.225,280.867-7.982,441.73,60.665q9.225,3.937,18.56,7.852h0l-1.832,2.734C516.788,469.286,351.338,629.279,218.643,666.4q-29,8.113-54.476,8.11c-23.727,0-45.068-5.287-63.8-15.842M610.349,333.849C739.222,143.179,849.861,79.725,920.03,60.092c54.873-15.354,106.022-9.669,147.911,16.446,49.354,30.769,84.2,89.106,98.122,164.262,19.823,108.156-9.121,173.91-86.038,195.431q-29.258,8.187-67.3,8.194c-92.794,0-225.518-36.553-402.375-110.575M919.418,57.908c-70.581,19.751-181.832,83.51-311.2,275.047q-9.531-4-18.961-8.023c-75.419-32.185-155.588-55.2-231.839-66.564-81.382-12.129-154.479-10.12-211.392,5.8C59.9,288.267-32.063,355.618,18.934,539.624c16.594,59.616,43.62,100.333,80.323,121.021,32.663,18.409,73.035,21.082,120,7.945,133.218-37.274,299.192-197.705,387.719-329.729l2.085-3.1c225.986,94.622,380.251,128.2,471.578,102.647,78.238-21.891,107.73-88.513,87.658-198.023-14.037-75.792-49.251-134.667-99.156-165.774-26.892-16.765-57.529-25.227-90.489-25.227a219.924,219.924,0,0,0-59.229,8.52" transform="translate(-4.3 -49.388)" fill="url(#linear-gradient)"/>
    </clipPath>
    <clipPath id="clip-path-3">
      <path id="Path_308370" data-name="Path 308370" d="M106.455,659.648c-36.27-20.476-63.053-61.17-79.608-120.953C-14.552,388.04,25.862,290.976,143.721,258,270.48,222.535,454.2,269.025,583.872,324.362q12.174,5.192,24.522,10.329-2.633,3.86-5.264,7.784c-87.913,130.546-251.07,288.8-380.288,324.961q-28.346,7.93-53.318,7.926c-23.422,0-44.522-5.244-63.069-15.714M611.837,333.661C742.9,142.087,854.689,78.245,925.444,58.449,979.029,43.456,1028.6,48.66,1068.793,73.5c47.411,29.3,79.975,83.677,94.181,157.244,20.754,109.446-9.029,176.216-88.519,198.459q-30.655,8.576-70.726,8.569c-93.314,0-224.634-34.851-391.892-104.116M924.832,56.267C853.667,76.178,741.256,140.336,609.7,332.775q-12.566-5.214-24.939-10.5C454.737,266.79,270.433,220.195,143.111,255.818,59.934,279.092-28.133,347.164,24.661,539.3c16.724,60.385,43.869,101.538,80.681,122.323,32.255,18.21,71.993,20.9,118.11,8,77.921-21.8,157.174-82.94,209.936-130.392,64.409-57.914,126.959-129.17,171.619-195.488q2.769-4.114,5.526-8.165c215.857,89.438,372.131,121.668,464.534,95.815,80.819-22.612,111.142-90.258,90.13-201.064-14.326-74.212-47.25-129.1-95.209-158.748-25.567-15.8-54.847-23.772-86.512-23.772a217.879,217.879,0,0,0-58.644,8.464" transform="translate(-8.687 -47.803)" fill="url(#linear-gradient)"/>
    </clipPath>
    <clipPath id="clip-path-4">
      <path id="Path_308371" data-name="Path 308371" d="M112.65,660.966C76.274,640.4,49.37,599.26,32.685,538.69,9.96,455.351,9.424,388.1,31.089,338.815c19.332-43.982,56.371-73.9,110.083-88.933,101.833-28.491,265.691-1.521,438.32,72.147,10.19,4.347,20.457,8.643,30.545,12.78v0q-4.379,6.357-8.759,12.857C511.563,480.332,354.232,633.235,227.117,668.8q-27.685,7.745-52.143,7.743c-23.113,0-43.962-5.2-62.324-15.58M613.5,333.784C717.827,183.122,830.729,84.65,931.5,56.454c52.117-14.581,99.956-9.816,138.347,13.782,44.879,27.584,76.05,79.725,90.145,150.789,21.957,110.7-8.594,178.5-90.8,201.5-22.252,6.226-47.31,9-74.327,8.993C879.88,431.508,729.79,381.308,613.5,333.784M930.891,54.27C829.515,82.637,716.06,181.573,611.356,332.9c-10.226-4.191-20.639-8.548-30.973-12.958C407.293,246.08,242.874,219.073,140.561,247.7c-54.4,15.22-91.929,45.569-111.545,90.2C7.137,387.678,7.634,455.433,30.5,539.292c16.852,61.172,44.114,102.775,81.036,123.646,31.841,18,70.932,20.709,116.192,8.044C355.37,635.269,513.207,481.944,603.152,348.935q4.525-6.71,9.031-13.248c143.982,58.885,339.921,121.95,457.625,89.02,83.541-23.377,114.634-92.052,92.4-204.123-14.219-71.7-45.748-124.357-91.177-152.279-24.219-14.886-52.112-22.392-82.433-22.39a214.437,214.437,0,0,0-57.713,8.355" transform="translate(-12.97 -45.915)" fill="url(#linear-gradient)"/>
    </clipPath>
    <clipPath id="clip-path-5">
      <path id="Path_308372" data-name="Path 308372" d="M118.886,662.583c-36.477-20.657-63.5-62.247-80.323-123.615C14.984,451.875,13.239,382.13,33.379,331.674c17.944-44.957,53.444-75.137,105.517-89.71,97.286-27.219,256.3,1.214,436.259,78.011,12.185,5.2,24.5,10.316,36.629,15.22-4.108,5.895-8.25,11.925-12.319,17.948C510.159,484.645,355.052,635.871,231.4,670.466q-27.03,7.563-50.965,7.56c-22.792,0-43.383-5.153-61.551-15.442M615.276,334.159C721.937,181.9,836.422,82.464,937.736,54.117c50.26-14.062,96.122-9.727,132.619,12.541,42.6,25.991,72.578,76.1,86.7,144.921,22.987,112.03-8.445,180.9-93.437,204.674-23.362,6.538-49.626,9.379-77.647,9.379-122.212,0-277.746-54.07-370.691-91.474M937.126,51.933C835.209,80.451,720.167,180.353,613.119,333.289c-12.273-4.955-24.743-10.135-37.074-15.4C395.616,240.9,236.058,212.427,138.286,239.784c-52.79,14.769-88.793,45.4-107.013,91.049-20.325,50.924-18.607,121.151,5.106,208.73,16.981,61.975,44.366,104.027,81.39,125,31.416,17.787,69.854,20.511,114.243,8.091C356.189,637.906,511.8,486.26,601.34,354.412c4.166-6.158,8.4-12.327,12.605-18.345,114.416,46.08,324.2,117.646,450.276,82.371,86.341-24.16,118.32-93.907,95.052-207.313-14.247-69.45-44.588-120.075-87.738-146.4-22.849-13.94-49.273-20.966-78.114-20.964a209.292,209.292,0,0,0-56.3,8.171" transform="translate(-17.213 -43.762)" fill="url(#linear-gradient)"/>
    </clipPath>
    <clipPath id="clip-path-6">
      <path id="Path_308373" data-name="Path 308373" d="M125.19,664.615c-36.569-20.737-63.71-62.791-80.667-124.989C-1.86,367.195,29.22,264.486,136.9,234.358c118.448-33.141,301.384,27.359,434,83.949,14.19,6.055,28.575,11.983,42.787,17.626C608.367,343.474,603,351.227,597.734,359,553,424.584,492.893,493.655,432.811,548.5,361.6,613.49,293.453,656.382,235.73,672.533q-26.375,7.38-49.791,7.376c-22.46,0-42.785-5.1-60.75-15.294M617.2,334.891C726.541,180.56,842.632,79.936,944.168,51.526c48.849-13.666,91.393-9.828,126.456,11.412,40.523,24.543,69.424,72.807,83.57,139.577,24.028,113.39-8.346,183.349-96.225,207.937-24.961,6.985-52.844,9.995-82.4,9.995-120.86,0-269.451-50.4-358.378-85.556M943.56,49.344C841.424,77.921,724.769,179.021,615.03,334.029c-14.361-5.7-28.9-11.688-43.243-17.808C438.843,259.49,255.375,198.86,136.293,232.176,27.176,262.706-4.436,366.346,42.337,540.219c17.122,62.806,44.621,105.321,81.736,126.368,30.977,17.571,68.752,20.307,112.269,8.13,58.065-16.246,126.528-59.318,198-124.548C494.543,495.215,554.78,426,599.607,360.272c5.367-7.914,10.831-15.809,16.248-23.478,110.818,43.853,314.849,111.622,442.727,75.842,89.238-24.967,122.152-95.825,97.83-210.593C1142.129,134.647,1112.87,85.874,1071.8,61c-21.727-13.159-46.251-19.751-73.3-19.748q-25.951,0-54.935,8.1" transform="translate(-21.381 -41.249)" fill="url(#linear-gradient)"/>
    </clipPath>
    <clipPath id="clip-path-7">
      <path id="Path_308374" data-name="Path 308374" d="M131.433,666.869c-36.66-20.826-63.916-63.35-81.009-126.388C25.131,445.9,21.033,371.149,38.245,318.307c15.306-46.978,47.87-77.737,96.787-91.424,88.478-24.755,233.669,5.507,431.543,89.949,16.188,6.908,32.671,13.635,49.02,20l0,0h0c-6.562,9.2-13.17,18.683-19.656,28.212C510.188,490.264,362.211,640.61,239.966,674.816q-25.713,7.192-48.6,7.191c-22.126,0-42.173-5.052-59.93-15.137m487.7-331.091c112.351-156.9,230-258.892,331.383-287.259,46.515-13.015,86.893-9.515,120.016,10.4,39.188,23.566,66.354,68.9,80.743,134.727,25.081,114.776-8.279,185.867-99.151,211.293-24.388,6.824-53.058,10.18-85.336,10.178-92.092,0-213.44-27.326-347.656-79.342M949.908,46.338C900.328,60.21,846.532,91.841,790,140.36c-58.182,49.939-116.4,115.4-173.049,194.572-16.5-6.42-33.145-13.211-49.492-20.185C369.1,230.1,223.407,199.8,134.422,224.7,28.984,254.2-.016,360.643,48.236,541.068,65.5,604.721,93.11,647.706,130.312,668.841c30.532,17.34,67.629,20.084,110.264,8.153C363.367,642.64,511.834,491.877,597.812,366.33c6.589-9.682,13.3-19.316,19.961-28.649,181.927,70.577,340.436,95.893,434.965,69.444,92.238-25.808,126.133-97.8,100.749-213.962C1138.964,126.7,1111.444,80.882,1071.7,56.98c-20.418-12.278-43.519-18.428-69.051-18.428q-24.866,0-52.741,7.786" transform="translate(-25.607 -38.552)" fill="url(#linear-gradient)"/>
    </clipPath>
    <clipPath id="clip-path-8">
      <path id="Path_308375" data-name="Path 308375" d="M137.8,669.427c-36.734-20.9-64.1-63.9-81.341-127.812-26.152-98.335-31.4-175.594-15.593-229.639,14.041-48.017,45.2-79.087,92.6-92.349,109.182-30.549,286.581,35.261,428.929,96.006,18.216,7.774,36.825,15.286,55.325,22.336-7.836,10.879-15.714,22.116-23.43,33.409-85.35,124.1-231.281,272.8-349.988,306.016a176.334,176.334,0,0,1-47.419,7.005c-21.78,0-41.545-5-59.081-14.973M621.289,336.9C735.284,179.271,857.527,73,956.83,45.21c44.065-12.329,82.241-9.127,113.468,9.519,37.459,22.369,63.768,66.218,78.2,130.326,26.15,116.2-8.241,188.452-102.212,214.745-25.81,7.222-56.071,10.772-90.013,10.772-90.6,0-207.35-25.316-334.981-73.668M956.22,43.028C856.33,70.976,733.487,177.76,619.094,336.068c-18.663-7.1-37.43-14.678-55.809-22.522-142.69-60.89-320.568-126.842-430.431-96.1-48.2,13.487-79.886,45.076-94.162,93.894C22.77,365.788,28.012,443.46,54.273,542.2c17.4,64.524,45.13,107.993,82.412,129.2,30.063,17.105,66.477,19.856,108.224,8.173C300.576,664,366.326,622.257,435.055,558.862c57.439-52.984,116.157-120.848,161.105-186.2,7.821-11.453,15.811-22.841,23.756-33.86,176.125,66.8,331.713,89.836,426.977,63.181,44.893-12.562,76.769-36,94.741-69.654,19.755-37,22.81-86.718,9.068-147.773-14.567-64.736-41.232-109.071-79.247-131.772-19.18-11.454-40.9-17.19-64.94-17.19q-23.686,0-50.3,7.434" transform="translate(-29.701 -35.594)" fill="url(#linear-gradient)"/>
    </clipPath>
    <clipPath id="clip-path-9">
      <path id="Path_308376" data-name="Path 308376" d="M144.192,672.26C107.382,651.287,79.9,607.8,62.518,543,35.5,440.917,29.121,361.14,43.546,305.885c12.993-49.756,41.947-80.276,88.519-93.307,104.149-29.14,274.587,37.43,426.168,102.113,20.241,8.637,40.993,16.916,61.708,24.619v0c-9.138,12.576-18.319,25.573-27.289,38.654-87.783,127.109-228.2,269.869-344.03,302.277a171.79,171.79,0,0,1-46.222,6.824c-21.421,0-40.894-4.941-58.207-14.808M623.534,338.227C741.05,177.169,864.671,69.091,962.839,41.624,1004.4,30,1040.387,32.946,1069.8,50.391c35.906,21.292,61.454,63.795,75.928,126.331,27.234,117.654-8.237,191.1-105.422,218.29-27.215,7.615-59.05,11.359-94.626,11.359-88.838,0-200.934-23.362-322.151-68.144m338.7-298.784c-98.759,27.631-222.978,136.212-340.9,297.966-20.88-7.753-41.8-16.1-62.2-24.8C407.19,247.771,236.313,181.057,131.453,210.394c-46.756,13.083-77.068,45.017-90.1,94.921-14.525,55.636-8.143,135.8,18.974,238.274,17.55,65.4,45.388,109.355,82.744,130.641,29.6,16.866,65.317,19.623,106.16,8.2C365.6,649.866,506.5,506.7,594.518,379.251c9.084-13.242,18.376-26.4,27.629-39.12,170.435,63.049,323.039,83.852,418.775,57.064,46.3-12.951,79.189-36.878,97.76-71.111,20.437-37.682,23.554-88.107,9.253-149.874-14.614-63.158-40.517-106.145-76.975-127.769-18.03-10.691-38.454-16.048-61.05-16.048q-22.444,0-47.681,7.051" transform="translate(-33.778 -32.392)" fill="url(#linear-gradient)"/>
    </clipPath>
    <clipPath id="clip-path-10">
      <path id="Path_308377" data-name="Path 308377" d="M150.7,675.37c-36.874-21.044-64.46-65.031-82-130.736C15.633,343.151,35.985,232.289,130.924,205.727,233.336,177.072,403.8,249.814,554.2,313.995c22.272,9.506,45.2,18.533,68.165,26.844v0c-10.456,14.27-20.954,29.053-31.216,43.956C503.787,510.76,365.358,651.93,253.031,683.356A167.27,167.27,0,0,1,208,690c-21.057,0-40.228-4.881-57.3-14.626M625.986,339.737C747.255,174.805,872.058,64.791,968.539,37.8c39.077-10.934,72.941-8.2,100.657,8.124,34.511,20.327,59.373,61.613,73.9,122.711,28.332,119.144-8.264,193.815-108.77,221.937-28.6,8-62,11.94-99.175,11.94-86.8,0-194.207-21.469-309.164-62.771M967.929,35.614C870.859,62.771,745.452,173.3,623.763,338.931c-23.136-8.357-46.238-17.445-68.674-27.022-150.74-64.324-321.6-137.236-424.777-108.364-96.385,26.966-117.255,138.73-63.8,341.673,17.7,66.317,45.647,110.767,83.065,132.124,29.117,16.617,64.131,19.372,104.064,8.2,53.277-14.909,116.34-55.333,182.372-116.913,55.5-51.756,111.253-116.581,157-182.541,10.382-15.076,21-30.026,31.577-44.448,164.876,59.33,314.4,77.958,410.346,51.111,47.738-13.357,81.675-37.789,100.873-72.619,21.158-38.386,24.353-89.537,9.494-152.025-14.676-61.722-39.895-103.487-74.958-124.14-16.977-10-36.182-15-57.416-15a167.4,167.4,0,0,0-45,6.653" transform="translate(-37.733 -28.961)" fill="url(#linear-gradient)"/>
    </clipPath>
    <clipPath id="clip-path-11">
      <path id="Path_308378" data-name="Path 308378" d="M157.081,678.739c-36.924-21.106-64.615-65.6-82.307-132.248C20.184,338.335,38.18,224.69,129.791,199.057c92.691-25.934,244.875,39.3,392.05,102.389q14.173,6.076,28.212,12.078c24.3,10.368,49.424,20.119,74.7,29-11.8,16-23.643,32.591-35.22,49.331C508.96,507.54,373.605,654.175,257.294,686.718a162.83,162.83,0,0,1-43.84,6.457c-20.684,0-39.544-4.819-56.373-14.437M628.4,341.4C753.557,172.236,879.327,60.132,973.591,33.757c36.678-10.261,68.527-7.714,94.657,7.572,33.248,19.454,57.509,59.637,72.1,119.435,29.032,118.967-9.787,197.007-112.264,225.681-29.208,8.171-63.747,12.175-102.212,12.173-85.251,0-189.695-19.676-297.472-57.22M972.981,31.577C878.136,58.113,751.746,170.744,626.159,340.614c-25.45-8.921-50.751-18.735-75.217-29.175q-14.031-5.989-28.21-12.076C375.2,236.121,222.641,170.725,129.181,196.875,36.125,222.912,17.611,337.46,72.583,547.07c17.853,67.256,45.9,112.221,83.372,133.637,28.618,16.357,62.917,19.114,101.948,8.194,116.892-32.706,252.7-179.758,333.485-295.754,11.7-16.926,23.68-33.687,35.6-49.842,159.405,55.638,305.785,72.156,401.7,45.32,49.222-13.771,84.244-38.726,104.1-74.171,21.906-39.114,25.188-91,9.762-154.226-14.744-60.42-39.355-101.079-73.159-120.854-16.009-9.364-34.089-14.056-54.047-14.056a157.476,157.476,0,0,0-42.363,6.259" transform="translate(-41.796 -25.318)" fill="url(#linear-gradient)"/>
    </clipPath>
    <clipPath id="clip-path-12">
      <path id="Path_308379" data-name="Path 308379" d="M163.628,682.325c-36.973-21.162-64.769-66.172-82.616-133.771C51.409,435.219,41.7,347.88,52.165,288.962c9.42-53.054,34.532-84.59,76.767-96.408,84.775-23.721,225.524,37.5,361.642,96.709,18.261,7.943,37.142,16.153,55.5,23.991,26.342,11.241,53.687,21.691,81.3,31.074l0,0,0,0c-13.147,17.746-26.364,36.172-39.3,54.783C507.905,513.741,374.322,658.784,261.681,690.3a158.346,158.346,0,0,1-42.629,6.27c-20.3,0-38.844-4.753-55.424-14.245M631.042,343.178C760.161,169.441,886.65,55.162,978.229,29.539c34.4-9.626,64.353-7.234,89.028,7.106,32.129,18.669,55.852,57.851,70.514,116.455,30.147,120.5-9.935,199.875-115.911,229.525-30.561,8.55-66.675,12.743-106.737,12.741-82.736,0-182.251-17.888-284.079-52.189M977.617,27.357c-48.5,13.572-105.2,50.207-168.516,108.892-57.115,52.939-119.451,124.215-180.312,206.165-27.792-9.422-55.32-19.932-81.827-31.245-18.348-7.829-37.227-16.044-55.483-23.983C355,227.821,213.872,166.435,128.32,190.372c-43.158,12.076-68.8,44.195-78.386,98.194-10.666,60.078-1.218,145.3,28.886,260.561,18.01,68.208,46.164,113.69,83.681,135.165,28.116,16.093,61.689,18.852,99.791,8.192,113.218-31.678,247.257-177.137,327.64-292.076C603,381.6,616.344,363,629.625,345.092c71.4,24.1,143.778,40.772,209.338,48.22,72.246,8.211,133.989,5.347,183.505-8.505,107.365-30.042,148-110.353,117.5-232.26-14.816-59.219-38.893-98.874-71.57-117.863-15.14-8.8-32.189-13.2-50.975-13.2a147.987,147.987,0,0,0-39.806,5.874" transform="translate(-45.702 -21.483)" fill="url(#linear-gradient)"/>
    </clipPath>
    <clipPath id="clip-path-13">
      <path id="Path_308380" data-name="Path 308380" d="M170.146,686.134c-37-21.213-64.9-66.749-82.909-135.336C56.336,432.055,45.847,344.69,55.16,283.7c8.279-54.177,32.154-86.069,73-97.5C206.27,164.35,337.346,222.618,464.1,278.967c25.656,11.406,52.183,23.2,77.976,34.208,28.375,12.107,57.958,23.226,87.956,33.06l0,0c-14.486,19.5-29.09,39.783-43.426,60.319C503.019,525.585,374.9,663.623,266.019,694.089a153.844,153.844,0,0,1-41.432,6.086c-19.909,0-38.123-4.685-54.441-14.041M633.734,345.061c134.976-181.188,258.708-294.773,348.5-319.9,32.279-9.033,60.486-6.777,83.834,6.7,31.117,17.966,54.369,56.237,69.106,113.758,31.283,122.074-10.112,202.8-119.7,233.471-31.9,8.923-69.568,13.3-111.2,13.3-79.991,0-174.553-16.176-270.539-47.337M981.623,22.982c-90.369,25.285-214.714,139.4-350.161,321.335-30.18-9.871-59.954-21.051-88.492-33.227-25.779-11-52.3-22.79-77.945-34.192-132.977-59.114-258.581-114.951-337.478-92.877-41.79,11.693-66.2,44.188-74.624,99.338-9.364,61.3,1.141,148.966,32.121,268.015,18.17,69.195,46.426,115.194,83.976,136.727,27.6,15.822,60.436,18.57,97.609,8.169,109.46-30.625,238.022-169.064,321.833-288.414,14.476-20.731,29.224-41.209,43.844-60.877,148.776,48.424,288.61,60.925,383.776,34.3,77.393-21.652,161.262-80.212,121.287-236.213-14.892-58.133-38.5-96.876-70.167-115.157-14.35-8.285-30.469-12.434-48.177-12.434a139.01,139.01,0,0,0-37.4,5.511" transform="translate(-49.62 -17.471)" fill="url(#linear-gradient)"/>
    </clipPath>
    <clipPath id="clip-path-14">
      <path id="Path_308381" data-name="Path 308381" d="M176.7,690.1c-37.027-21.263-65.017-67.33-83.193-136.925-31.783-122.566-43.323-212.4-35.279-274.614,7.147-55.306,29.813-87.561,69.3-98.609,72.351-20.243,189.592,33.3,313.714,89.982,31.847,14.544,64.78,29.583,96.9,43.288,30.423,12.982,62.264,24.743,94.655,34.958l0,0c-15.739,21.18-31.748,43.362-47.6,65.948-83.17,117.933-209.548,254.439-314.83,283.9a149.373,149.373,0,0,1-40.226,5.9c-19.509,0-37.385-4.615-53.435-13.831M636.517,346.978c98.4-132.1,238.469-295.389,348.909-326.29,30.314-8.48,56.926-6.348,79.1,6.342,30.259,17.315,53.17,54.746,68.1,111.251,40.674,156.336-44.918,215.49-123.885,237.584-33.915,9.49-73.287,14.169-116.5,14.169-76.289,0-164.534-14.589-255.723-43.055m348.3-328.472C873.581,49.628,732.859,213.768,634.225,346.262c-32.584-10.248-64.611-22.064-95.2-35.119-32.09-13.693-65.01-28.728-96.845-43.267-124.509-56.862-242.116-110.567-315.267-90.1-40.453,11.32-63.655,44.193-70.932,100.5C47.9,340.785,59.459,430.9,91.316,553.751c18.335,70.2,46.681,116.74,84.256,138.316,27.071,15.543,59.169,18.286,95.4,8.151C376.828,670.6,503.651,533.692,587.043,415.442c16-22.8,32.162-45.181,48.037-66.537,143.539,44.918,279.909,55.545,374.271,29.144,79.942-22.367,166.6-82.22,125.465-240.342-15.094-57.117-38.364-95.015-69.166-112.644-13.658-7.817-28.933-11.73-45.662-11.73a130.666,130.666,0,0,0-35.174,5.174" transform="translate(-53.494 -13.333)" fill="url(#linear-gradient)"/>
    </clipPath>
    <clipPath id="clip-path-15">
      <path id="Path_308382" data-name="Path 308382" d="M183.31,694.3c-37.033-21.3-65.115-67.915-83.457-138.544C38.309,317.631,46.95,196.285,127.04,173.874c67.285-18.823,177.473,33.069,294.138,88.006,37.109,17.48,75.479,35.549,113.081,51.593a985.86,985.86,0,0,0,101.409,36.738c-16.827,22.687-34.258,46.8-51.826,71.7-40.148,56.695-181.095,244.465-309.1,280.278a144.907,144.907,0,0,1-39.029,5.722c-19.1,0-36.631-4.545-52.4-13.611m456.1-345.332c146.5-197.1,263.917-309.109,349-332.914,28.536-7.984,53.7-5.95,74.786,6.049,29.437,16.749,51.958,53.433,66.949,109.03,42.239,158.39-46.234,218.873-127.894,241.723-35.22,9.853-76.074,14.719-120.751,14.717-73.159,0-156.55-13.05-242.092-38.6M987.8,13.873c-85.674,23.972-203.668,136.49-350.7,334.4a982.091,982.091,0,0,1-101.953-36.884c-37.56-16.028-75.916-34.091-113.008-51.556C305.089,204.708,194.525,152.64,126.43,171.692c-81.553,22.82-90.695,145.039-28.771,384.633,18.5,71.245,46.941,118.328,84.522,139.941,26.525,15.255,57.873,17.985,93.167,8.11,128.727-36.017,270.084-224.3,310.341-281.154,17.731-25.128,35.319-49.453,52.288-72.316,138.462,41.485,271.421,50.283,364.887,24.131,55.535-15.539,95.252-42.746,118.044-80.871,25.27-42.262,29.117-97.313,11.433-163.617-15.154-56.2-38.04-93.353-68.019-110.412a86.353,86.353,0,0,0-43.4-11.126A123.178,123.178,0,0,0,987.8,13.873" transform="translate(-57.301 -9.011)" fill="url(#linear-gradient)"/>
    </clipPath>
    <clipPath id="clip-path-16">
      <path id="Path_308383" data-name="Path 308383" d="M189.851,698.664c-37.027-21.327-65.19-68.492-83.71-140.193-63.1-244.9-56.606-369.009,20.439-390.567,62.744-17.554,166.641,33.042,276.642,86.613,41.627,20.272,84.674,41.234,127.107,59.344a941.27,941.27,0,0,0,108.187,38.393c-17.711,23.989-36.067,49.378-56.077,77.57-51.19,71.989-183.233,243.062-303.42,276.689a140.4,140.4,0,0,1-37.828,5.538,101.172,101.172,0,0,1-51.34-13.388M642.28,350.976C794.264,145.527,908.274,34.417,990.8,11.324c26.935-7.535,50.79-5.59,70.893,5.788,28.694,16.236,50.874,52.24,65.927,107.017,43.848,160.479-47.607,222.331-132.05,245.959-36.513,10.217-78.841,15.267-124.96,15.265-69.842,0-148.352-11.592-228.333-34.377M990.193,9.142C907.068,32.4,792.5,144.007,639.954,350.31a939.3,939.3,0,0,1-108.737-38.535c-42.382-18.084-85.4-39.035-127.006-59.3C293.816,198.715,189.542,147.936,125.97,165.723c-78.5,21.965-85.5,146.942-22.025,393.315,18.681,72.312,47.2,119.95,84.775,141.592,25.977,14.962,56.563,17.676,90.911,8.066C400.516,674.873,532.956,503.324,584.287,431.14c20.187-28.449,38.7-54.041,56.553-78.219,133.472,38.145,262.953,45.2,355.345,19.351,57.222-16.013,98.2-43.828,121.79-82.676,26.179-43.117,30.164-98.988,11.831-166.069-15.214-55.376-37.754-91.849-66.992-108.389a82.644,82.644,0,0,0-41.355-10.58,116.076,116.076,0,0,0-31.264,4.584" transform="translate(-61.159 -4.558)" fill="url(#linear-gradient)"/>
    </clipPath>
    <clipPath id="clip-path-17">
      <path id="Path_308384" data-name="Path 308384" d="M196.554,703.17C159.548,681.823,131.3,634.088,112.6,561.3,47.947,309.614,52.319,182.743,126.362,162.024c58.634-16.4,156.832,33.151,260.793,85.62,45.55,22.987,92.646,46.756,139.416,66.714a901.532,901.532,0,0,0,114.972,39.917c-22.31,30.434-43.929,60.6-60.331,83.574C530.29,509.163,399.336,678.534,283.433,710.964a136,136,0,0,1-36.627,5.355,98.957,98.957,0,0,1-50.252-13.149m448.77-350.215C752.747,206.623,889.068,35.529,992.86,6.488c29.941-8.377,55.934-4.3,77.259,12.107,23.294,17.919,41.848,51.107,55.147,98.637,45.5,162.618-49.026,225.872-136.334,250.3-37.783,10.574-81.582,15.809-129.091,15.807-66.374,0-139.989-10.219-214.518-30.384M1021.479,0a109.227,109.227,0,0,0-29.23,4.3C887.615,33.582,750.7,205.533,642.979,352.321a899.633,899.633,0,0,1-115.516-40.045c-46.706-19.932-93.771-43.684-139.286-66.655C283.81,192.95,185.233,143.2,125.752,159.842,89.214,170.066,69.538,204.121,65.6,263.948c-4.354,66.144,10.3,163.59,44.811,297.913,18.856,73.4,47.458,121.606,85.014,143.273,25.41,14.659,55.228,17.358,88.62,8.017,116.6-32.626,247.951-202.473,299.011-273.982,16.526-23.148,38.347-53.594,60.836-84.252,128.552,34.9,254.5,40.3,345.653,14.8,58.944-16.493,101.215-44.934,125.632-84.536,27.128-43.991,31.26-100.7,12.271-168.555C1105.768,39.132,1070.282.052,1021.724,0Z" transform="translate(-64.852)" fill="url(#linear-gradient)"/>
    </clipPath>
  </defs>
  <g id="Group_151339" data-name="Group 151339" opacity="0.22" style="mix-blend-mode: screen;isolation: isolate">
    <g id="Group_151279" data-name="Group 151279" transform="translate(0 104.462)">
      <g id="Group_151278" data-name="Group 151278" clip-path="url(#clip-path)">
        <rect id="Rectangle_48562" data-name="Rectangle 48562" width="1348.465" height="936.872" transform="translate(-196.982 40.833) rotate(-15.629)" fill="url(#linear-gradient)"/>
      </g>
    </g>
    <g id="Group_151281" data-name="Group 151281" transform="translate(8.86 101.757)">
      <g id="Group_151280" data-name="Group 151280" clip-path="url(#clip-path-2)">
        <rect id="Rectangle_48563" data-name="Rectangle 48563" width="1346.914" height="942.23" transform="matrix(0.963, -0.269, 0.269, 0.963, -201.628, 41.583)" fill="url(#linear-gradient)"/>
      </g>
    </g>
    <g id="Group_151283" data-name="Group 151283" transform="translate(17.898 98.491)">
      <g id="Group_151282" data-name="Group 151282" clip-path="url(#clip-path-3)">
        <rect id="Rectangle_48564" data-name="Rectangle 48564" width="1341.612" height="942.588" transform="translate(-202.623 42.036) rotate(-15.629)" fill="url(#linear-gradient)"/>
      </g>
    </g>
    <g id="Group_151285" data-name="Group 151285" transform="translate(26.723 94.601)">
      <g id="Group_151284" data-name="Group 151284" clip-path="url(#clip-path-4)">
        <rect id="Rectangle_48565" data-name="Rectangle 48565" width="1306.674" height="935.219" transform="translate(-172.339 42.538) rotate(-15.629)" fill="url(#linear-gradient)"/>
      </g>
    </g>
    <g id="Group_151287" data-name="Group 151287" transform="translate(35.464 90.165)">
      <g id="Group_151286" data-name="Group 151286" clip-path="url(#clip-path-5)">
        <rect id="Rectangle_48566" data-name="Rectangle 48566" width="1302.047" height="936.802" transform="translate(-173.612 43.109) rotate(-15.629)" fill="url(#linear-gradient)"/>
      </g>
    </g>
    <g id="Group_151289" data-name="Group 151289" transform="translate(44.053 84.988)">
      <g id="Group_151288" data-name="Group 151288" clip-path="url(#clip-path-6)">
        <rect id="Rectangle_48567" data-name="Rectangle 48567" width="1316.204" height="944.33" transform="translate(-194.206 43.718) rotate(-15.629)" fill="url(#linear-gradient)"/>
      </g>
    </g>
    <g id="Group_151291" data-name="Group 151291" transform="translate(52.76 79.431)">
      <g id="Group_151290" data-name="Group 151290" clip-path="url(#clip-path-7)">
        <rect id="Rectangle_48568" data-name="Rectangle 48568" width="1311.336" height="946.862" transform="matrix(0.963, -0.269, 0.269, 0.963, -195.151, 44.378)" fill="url(#linear-gradient)"/>
      </g>
    </g>
    <g id="Group_151293" data-name="Group 151293" transform="translate(61.194 73.336)">
      <g id="Group_151292" data-name="Group 151292" clip-path="url(#clip-path-8)">
        <rect id="Rectangle_48569" data-name="Rectangle 48569" width="1286.656" height="944.354" transform="matrix(0.963, -0.269, 0.269, 0.963, -177.743, 45.072)" fill="url(#linear-gradient)"/>
      </g>
    </g>
    <g id="Group_151295" data-name="Group 151295" transform="translate(69.595 66.739)">
      <g id="Group_151294" data-name="Group 151294" clip-path="url(#clip-path-9)">
        <rect id="Rectangle_48570" data-name="Rectangle 48570" width="1282.608" height="948.087" transform="translate(-179.184 45.789) rotate(-15.629)" fill="url(#linear-gradient)"/>
      </g>
    </g>
    <g id="Group_151297" data-name="Group 151297" transform="translate(77.744 59.67)">
      <g id="Group_151296" data-name="Group 151296" clip-path="url(#clip-path-10)">
        <rect id="Rectangle_48571" data-name="Rectangle 48571" width="1296.004" height="957.158" transform="translate(-198.466 46.519) rotate(-15.629)" fill="url(#linear-gradient)"/>
      </g>
    </g>
    <g id="Group_151299" data-name="Group 151299" transform="translate(86.116 52.164)">
      <g id="Group_151298" data-name="Group 151298" clip-path="url(#clip-path-11)">
        <rect id="Rectangle_48572" data-name="Rectangle 48572" width="1291.39" height="961.612" transform="translate(-199.655 47.267) rotate(-15.629)" fill="url(#linear-gradient)"/>
      </g>
    </g>
    <g id="Group_151301" data-name="Group 151301" transform="translate(94.162 44.263)">
      <g id="Group_151300" data-name="Group 151300" clip-path="url(#clip-path-12)">
        <rect id="Rectangle_48573" data-name="Rectangle 48573" width="1273.439" height="962.723" transform="translate(-183.696 48.019) rotate(-15.629)" fill="url(#linear-gradient)"/>
      </g>
    </g>
    <g id="Group_151303" data-name="Group 151303" transform="translate(102.235 35.996)">
      <g id="Group_151302" data-name="Group 151302" clip-path="url(#clip-path-13)">
        <rect id="Rectangle_48574" data-name="Rectangle 48574" width="1277.902" height="970.459" transform="matrix(0.963, -0.269, 0.269, 0.963, -185.22, 48.78)" fill="url(#linear-gradient)"/>
      </g>
    </g>
    <g id="Group_151305" data-name="Group 151305" transform="translate(110.216 27.471)">
      <g id="Group_151304" data-name="Group 151304" clip-path="url(#clip-path-14)">
        <rect id="Rectangle_48575" data-name="Rectangle 48575" width="1274.431" height="976.238" transform="translate(-186.723 49.547) rotate(-15.629)" fill="url(#linear-gradient)"/>
      </g>
    </g>
    <g id="Group_151307" data-name="Group 151307" transform="translate(118.061 18.566)">
      <g id="Group_151306" data-name="Group 151306" clip-path="url(#clip-path-15)">
        <rect id="Rectangle_48576" data-name="Rectangle 48576" width="1284.877" height="986.291" transform="translate(-204.781 50.317) rotate(-15.629)" fill="url(#linear-gradient)"/>
      </g>
    </g>
    <g id="Group_151309" data-name="Group 151309" transform="translate(126.009 9.391)">
      <g id="Group_151308" data-name="Group 151308" clip-path="url(#clip-path-16)">
        <rect id="Rectangle_48577" data-name="Rectangle 48577" width="1281.681" height="992.798" transform="matrix(0.963, -0.269, 0.269, 0.963, -206.068, 51.091)" fill="url(#linear-gradient)"/>
      </g>
    </g>
    <g id="Group_151311" data-name="Group 151311" transform="translate(133.617)">
      <g id="Group_151310" data-name="Group 151310" clip-path="url(#clip-path-17)">
        <rect id="Rectangle_48578" data-name="Rectangle 48578" width="1276.457" height="1000.094" transform="translate(-204.843 50.687) rotate(-15.629)" fill="url(#linear-gradient)"/>
      </g>
    </g>
  </g>
</svg>
